<?xml version="1.0" encoding="utf-8" ?>
<svg baseProfile="full" height="50" version="1.1" width="50" xmlns="http://www.w3.org/2000/svg" xmlns:ev="http://www.w3.org/2001/xml-events" xmlns:xlink="http://www.w3.org/1999/xlink"><defs /><path d="M 45.0 16.5 L 44.5 17.0 L 44.0 17.5 L 43.5 18.0 L 43.0 18.5 L 42.5 19.0 L 42.0 19.5 L 41.5 20.0 L 41.0 20.5 L 40.5 21.0 L 40.0 21.5 L 39.5 22.0 L 39.0 22.5 L 38.5 23.0 L 38.0 23.5 L 37.5 24.0 L 37.0 24.5 L 36.5 25.0 L 36.0 25.5 L 35.5 26.0 L 35.0 26.5 L 34.5 27.0 L 34.0 27.5 L 33.5 28.0 L 33.0 28.5 L 32.5 29.0 L 32.0 29.5 L 31.5 30.0 L 31.0 30.5 L 30.5 31.0 L 30.0 31.5 L 29.5 32.0 L 29.0 32.5 L 28.5 33.0 L 28.0 33.5 L 27.5 34.0 L 27.0 34.5 L 26.5 35.0 L 26.0 35.5 L 25.0 35.5 L 24.0 35.5 L 23.0 35.5 L 22.5 35.0 L 22.0 34.5 L 21.5 34.0 L 21.0 33.5 L 20.5 33.0 L 20.0 32.5 L 19.5 32.0 L 19.0 31.5 L 18.5 31.0 L 18.0 30.5 L 17.5 30.0 L 17.0 29.5 L 16.5 29.0 L 16.0 28.5 L 15.5 28.0 L 15.0 27.5 L 14.5 27.0 L 14.0 26.5 L 13.5 26.0 L 13.0 25.5 L 12.5 25.0 L 12.0 24.5 L 11.5 24.0 L 11.0 23.5 L 10.5 23.0 L 10.0 22.5 L 9.5 22.0 L 9.0 21.5 L 8.5 21.0 L 8.0 20.5 L 7.5 20.0 L 7.0 19.5 L 6.5 19.0 L 6.0 18.5 L 5.5 18.0 L 5.0 17.5 L 4.5 17.0 L 4.0 16.5 L 3.5 16.0 L 3.5 15.0 L 3.5 14.0 L 4.0 13.5 L 5.0 13.5 L 5.5 14.0 L 6.0 14.5 L 6.5 15.0 L 7.0 15.5 L 7.5 16.0 L 8.0 16.5 L 8.5 17.0 L 9.0 17.5 L 9.5 18.0 L 10.0 18.5 L 10.5 19.0 L 11.0 19.5 L 11.5 20.0 L 12.0 20.5 L 12.5 21.0 L 13.0 21.5 L 13.5 22.0 L 14.0 22.5 L 14.5 23.0 L 15.0 23.5 L 15.5 24.0 L 16.0 24.5 L 16.5 25.0 L 17.0 25.5 L 17.5 26.0 L 18.0 26.5 L 18.5 27.0 L 19.0 27.5 L 19.5 28.0 L 20.0 28.5 L 20.5 29.0 L 21.0 29.5 L 21.5 30.0 L 22.0 30.5 L 22.5 31.0 L 23.0 31.5 L 24.0 31.5 L 25.0 31.5 L 26.0 31.5 L 26.5 31.0 L 27.0 30.5 L 27.5 30.0 L 28.0 29.5 L 28.5 29.0 L 29.0 28.5 L 29.5 28.0 L 30.0 27.5 L 30.5 27.0 L 31.0 26.5 L 31.5 26.0 L 32.0 25.5 L 32.5 25.0 L 33.0 24.5 L 33.5 24.0 L 34.0 23.5 L 34.5 23.0 L 35.0 22.5 L 35.5 22.0 L 36.0 21.5 L 36.5 21.0 L 37.0 20.5 L 37.5 20.0 L 38.0 19.5 L 38.5 19.0 L 39.0 18.5 L 39.5 18.0 L 40.0 17.5 L 40.5 17.0 L 41.0 16.5 L 41.5 16.0 L 42.0 15.5 L 42.5 15.0 L 43.0 14.5 L 43.5 14.0 L 44.0 13.5 L 45.0 13.5 L 45.5 14.0 L 45.5 15.0 L 45.5 16.0 L 45.0 16.5 Z" fill="#2997ff" /></svg>